# 3ds Max Wavefront OBJ Exporter v0.97b - (c)2007 guruware
# File Created: 22.09.2015 17:25:05

mtllib 3d-model.mtl

#
# object Layer0_001
#

v  535.0000 20.0000 -750.0000
v  535.0000 20.0000 -270.0001
v  1005.0000 20.0000 -270.0001
v  1005.0000 20.0000 -750.0000
v  1005.0000 -0.0000 -270.0001
v  1005.0000 -0.0000 -750.0000
v  -1005.0001 -0.0000 -270.0001
v  -1005.0001 -0.0000 -750.0000
v  -529.2306 -0.0000 -750.0000
v  -1005.0001 -0.0000 -220.0001
v  -1005.0001 -0.0000 239.9999
v  -1005.0001 -0.0000 290.0000
v  -1005.0001 -0.0000 749.9999
v  -535.0001 -0.0000 749.9999
v  -485.0000 -0.0000 749.9999
v  -485.0000 -0.0000 -750.0000
v  485.0000 -0.0000 -750.0000
v  485.0000 -0.0000 749.9999
v  535.0000 -0.0000 749.9999
v  535.0000 -0.0000 -750.0000
v  1005.0000 -0.0000 749.9999
v  1005.0000 -0.0000 -220.0001
v  1005.0000 -0.0000 239.9999
v  1005.0000 -0.0000 290.0000
v  1005.0000 20.0000 749.9999
v  535.0000 20.0000 749.9999
v  -1005.0001 20.0000 -750.0000
v  -529.2306 20.0000 -750.0000
v  -1005.0001 20.0000 749.9999
v  -1005.0001 20.0000 290.0000
v  535.0000 20.0000 -220.0001
v  535.0000 20.0000 239.9999
v  1005.0000 20.0000 239.9999
v  1005.0000 20.0000 -220.0001
v  535.0000 20.0000 290.0000
v  1005.0000 20.0000 290.0000
v  -485.0000 20.0000 -750.0000
v  -485.0000 20.0000 -270.0001
v  485.0000 20.0000 -270.0001
v  485.0000 20.0000 -750.0000
v  -485.0000 20.0000 -220.0001
v  -485.0000 20.0000 239.9999
v  485.0000 20.0000 239.9999
v  485.0000 20.0000 -220.0001
v  485.0000 20.0000 290.0000
v  -485.0000 20.0000 290.0000
v  -485.0000 20.0000 749.9999
v  485.0000 20.0000 749.9999
v  -1005.0001 20.0000 -270.0001
v  -531.0768 20.0000 -270.0001
v  -1005.0001 20.0000 -220.0001
v  -1005.0001 20.0000 239.9999
v  -533.0385 20.0000 239.9999
v  -531.2692 20.0000 -220.0001
v  -535.0001 20.0000 749.9999
v  -533.2307 20.0000 290.0000
# 56 vertices

vn 0.0000 1.0000 -0.0000
vn 1.0000 0.0000 -0.0000
vn 0.0000 -1.0000 -0.0000
vn 0.0000 0.0000 1.0000
vn 0.0000 0.0000 -1.0000
vn -1.0000 0.0000 -0.0000
vn 0.0000 1.0000 0.0000
# 7 vertex normals

vt 2.9643 3.9252 0.0000
vt 2.9643 2.9883 0.0000
vt 3.6041 2.9883 0.0000
vt 3.6041 3.9252 0.0000
vt 3.6313 2.9883 0.0000
vt 3.6313 3.9252 0.0000
vt 0.8680 -1.0326 0.0000
vt 0.8680 -1.9695 0.0000
vt 1.5156 -1.9695 0.0000
vt 0.8680 -0.9350 0.0000
vt 0.8680 -0.0371 0.0000
vt 0.8680 0.0605 0.0000
vt 0.8680 0.9583 0.0000
vt 1.5078 0.9583 0.0000
vt 1.5758 0.9583 0.0000
vt 1.5758 -1.9695 0.0000
vt 2.8962 -1.9695 0.0000
vt 2.8962 0.9583 0.0000
vt 2.9643 0.9583 0.0000
vt 2.9643 -1.9695 0.0000
vt 3.6041 -1.9695 0.0000
vt 3.6041 0.9583 0.0000
vt 3.6041 -1.0326 0.0000
vt 3.6041 -0.9350 0.0000
vt 3.6041 -0.0371 0.0000
vt 3.6041 0.0605 0.0000
vt 3.6041 0.9974 0.0000
vt 2.9643 0.9974 0.0000
vt 1.5156 3.9643 0.0000
vt 0.8680 3.9643 0.0000
vt 0.8680 3.9252 0.0000
vt 1.5156 3.9252 0.0000
vt 0.8408 0.9974 0.0000
vt 0.8680 0.9974 0.0000
vt 0.8680 1.8952 0.0000
vt 0.8408 1.8952 0.0000
vt 2.9643 2.8907 0.0000
vt 2.9643 1.9928 0.0000
vt 3.6041 1.9928 0.0000
vt 3.6041 2.8907 0.0000
vt 2.9643 1.8952 0.0000
vt 3.6041 1.8952 0.0000
vt 1.5758 3.9252 0.0000
vt 1.5758 2.9883 0.0000
vt 2.8962 2.9883 0.0000
vt 2.8962 3.9252 0.0000
vt 1.5758 2.8907 0.0000
vt 1.5758 1.9928 0.0000
vt 2.8962 1.9928 0.0000
vt 2.8962 2.8907 0.0000
vt 2.8962 1.8952 0.0000
vt 1.5758 1.8952 0.0000
vt 1.5758 0.9974 0.0000
vt 2.8962 0.9974 0.0000
vt 0.8680 2.9883 0.0000
vt 1.5131 2.9883 0.0000
vt 0.8680 2.8907 0.0000
vt 0.8680 1.9928 0.0000
vt 1.5105 1.9928 0.0000
vt 1.5129 2.8907 0.0000
vt 1.5078 0.9974 0.0000
vt 1.5102 1.8952 0.0000
vt 3.6041 3.9643 0.0000
vt 2.9643 3.9643 0.0000
vt 2.8962 3.9643 0.0000
vt 1.5758 3.9643 0.0000
vt 0.8408 2.9883 0.0000
vt 0.8408 3.9252 0.0000
vt 0.8408 1.9928 0.0000
vt 0.8408 2.8907 0.0000
vt 3.6313 0.9974 0.0000
vt 3.6313 1.8952 0.0000
vt 3.6313 1.9928 0.0000
vt 3.6313 2.8907 0.0000
vt 6.4482 16.1995 0.0000
vt 6.4482 15.6995 0.0000
vt 11.1855 15.6995 0.0000
vt 11.1874 16.1995 0.0000
vt 11.6482 5.9995 0.0000
vt 11.1678 11.0995 0.0000
vt 11.1659 10.5995 0.0000
vt 11.1482 5.9995 0.0000
vt 6.4482 11.0995 0.0000
vt 6.4482 10.5995 0.0000
vt 11.2059 20.9995 0.0000
vt 11.6482 10.5995 0.0000
vt 11.6482 16.1995 0.0000
vt 11.6482 20.9995 0.0000
vt 11.6482 11.0995 0.0000
vt 21.3482 10.5995 0.0000
vt 21.3482 11.0995 0.0000
vt 21.8482 5.9995 0.0000
vt 21.3482 5.9995 0.0000
vt 21.3482 15.6995 0.0000
vt 21.3482 16.1995 0.0000
vt 21.3482 20.9995 0.0000
vt 21.8482 20.9995 0.0000
vt 21.8482 10.5995 0.0000
vt 21.8482 11.0995 0.0000
vt 26.5482 10.5995 0.0000
vt 26.5482 11.0995 0.0000
vt 21.8482 15.6995 0.0000
vt 21.8482 16.1995 0.0000
vt 26.5482 15.6995 0.0000
vt 26.5482 16.1995 0.0000
vt 11.6482 15.6995 0.0000
vt -21.8482 0.1592 0.0000
vt -21.3482 0.1592 0.0000
vt -21.3482 0.3592 0.0000
vt -21.8482 0.3592 0.0000
vt -11.6482 0.1592 0.0000
vt -11.2059 0.1592 0.0000
vt -11.2059 0.3592 0.0000
vt -11.6482 0.3592 0.0000
vt -15.6995 0.1592 0.0000
vt -15.6995 0.3592 0.0000
vt -16.1995 0.3592 0.0000
vt -16.1995 0.1592 0.0000
vt -10.5995 0.1592 0.0000
vt -10.5995 0.3592 0.0000
vt -11.0995 0.3592 0.0000
vt -11.0995 0.1592 0.0000
vt 11.1482 0.1592 0.0000
vt 11.6482 0.1592 0.0000
vt 11.6482 0.3592 0.0000
vt 11.1482 0.3592 0.0000
vt 21.3482 0.1592 0.0000
vt 21.8482 0.1592 0.0000
vt 21.8482 0.3592 0.0000
vt 21.3482 0.3592 0.0000
vt 10.5995 0.3592 0.0000
vt 10.5995 0.1592 0.0000
vt 11.0995 0.1592 0.0000
vt 11.0995 0.3592 0.0000
vt 15.6995 0.3592 0.0000
vt 15.6995 0.1592 0.0000
vt 16.1995 0.1592 0.0000
vt 16.1995 0.3592 0.0000
# 138 texture coords

g Layer0_001
usemtl wire_134110008
s off
f 1/1/1 2/2/1 3/3/1 4/4/1 
f 3/3/2 5/5/2 6/6/2 4/4/2 
f 7/7/3 8/8/3 9/9/3 10/10/3 
f 11/11/3 10/10/3 9/9/3 12/12/3 
f 13/13/3 12/12/3 9/9/3 14/14/3 
f 15/15/3 14/14/3 9/9/3 16/16/3 
f 15/15/3 16/16/3 17/17/3 18/18/3 
f 19/19/3 18/18/3 17/17/3 20/20/3 
f 19/19/3 20/20/3 6/21/3 21/22/3 
f 21/22/3 6/21/3 5/23/3 22/24/3 
f 21/22/3 22/24/3 23/25/3 24/26/3 
f 19/19/4 21/22/4 25/27/4 26/28/4 
f 9/29/5 8/30/5 27/31/5 28/32/5 
f 13/33/6 29/34/6 30/35/6 12/36/6 
f 31/37/1 32/38/1 33/39/1 34/40/1 
f 35/41/1 26/28/1 25/27/1 36/42/1 
f 37/43/1 38/44/1 39/45/1 40/46/1 
f 41/47/1 42/48/1 43/49/1 44/50/1 
f 45/51/1 46/52/1 47/53/1 48/54/1 
f 27/31/1 49/55/1 50/56/1 28/32/1 
f 51/57/1 52/58/1 53/59/1 54/60/1 
f 30/35/1 29/34/1 55/61/1 56/62/1 
f 6/63/5 20/64/5 1/1/5 4/4/5 
f 17/65/5 16/66/5 37/43/5 40/46/5 
f 7/67/6 49/55/6 27/31/6 8/68/6 
f 11/69/6 52/58/6 51/57/6 10/70/6 
f 13/13/4 14/14/4 55/61/4 29/34/4 
f 15/15/4 18/18/4 48/54/4 47/53/4 
f 25/27/2 21/71/2 24/72/2 36/42/2 
f 34/40/2 33/39/2 23/73/2 22/74/2 
f 49/75/7 51/76/7 54/77/7 50/78/7 
f 47/79/7 50/78/7 54/77/7 53/80/7 
f 47/79/7 53/80/7 56/81/7 55/82/7 
f 56/81/7 53/80/7 52/83/7 30/84/7 
f 28/85/7 50/78/7 47/79/7 46/86/7 
f 28/85/7 46/86/7 38/87/7 37/88/7 
f 42/89/7 38/87/7 46/86/7 45/90/7 
f 43/91/7 42/89/7 45/90/7 26/92/7 
f 26/92/7 45/90/7 48/93/7 
f 44/94/7 43/91/7 26/92/7 39/95/7 
f 40/96/7 39/95/7 26/92/7 1/97/7 
f 1/97/7 26/92/7 35/98/7 32/99/7 
f 32/99/7 35/98/7 36/100/7 33/101/7 
f 1/97/7 32/99/7 31/102/7 2/103/7 
f 2/103/7 31/102/7 34/104/7 3/105/7 
f 44/94/7 39/95/7 38/87/7 41/106/7 
f 38/87/7 42/89/7 41/106/7 
f 20/107/5 17/108/5 40/109/5 1/110/5 
f 16/111/5 9/112/5 28/113/5 37/114/5 
f 10/115/6 51/116/6 49/117/6 7/118/6 
f 12/119/6 30/120/6 52/121/6 11/122/6 
f 14/123/4 15/124/4 47/125/4 55/126/4 
f 18/127/4 19/128/4 26/129/4 48/130/4 
f 36/131/2 24/132/2 23/133/2 33/134/2 
f 34/135/2 22/136/2 5/137/2 3/138/2 
# 53 polygons - 2 triangles

